<svg width="24" height="24" viewBox="0 0 24 24" fill="none" xmlns="http://www.w3.org/2000/svg">
<path d="M2.66667 0C1.196 0 0 1.196 0 2.66667V21.3333C0 22.804 1.196 24 2.66667 24H11.4948H15.2188H21.3333C22.804 24 24 22.804 24 21.3333V2.66667C24 1.196 22.804 0 21.3333 0H2.66667ZM2.66667 3.26667C2.66667 2.9353 2.9353 2.66667 3.26667 2.66667H20.7334C21.0648 2.66667 21.3334 2.93525 21.3334 3.26658L21.3359 20.7333C21.3359 21.0647 21.0673 21.3333 20.7359 21.3333H15.8188C15.4874 21.3333 15.2188 21.0647 15.2188 20.7333V16.6469C15.2188 16.3155 15.4874 16.0469 15.8188 16.0469H17.8449C18.1465 16.0469 18.4013 15.8229 18.4399 15.5237L18.7538 13.0909C18.8001 12.732 18.5206 12.4141 18.1588 12.4141H15.8396C15.5082 12.4141 15.2396 12.1454 15.2396 11.8141V10.099C15.2396 9.0483 15.5324 8.33855 17.0391 8.33855H18.3427C18.6741 8.33855 18.9427 8.06992 18.9427 7.73855V5.63819C18.9427 5.33043 18.7099 5.07183 18.4032 5.04677C17.6551 4.98567 16.9049 4.95619 16.1536 4.95833C13.3883 4.95833 11.4948 6.64612 11.4948 9.74479V11.8193C11.4948 12.1506 11.2262 12.4193 10.8948 12.4193H8.96979C8.63842 12.4193 8.36979 12.6879 8.36979 13.0193V15.4521C8.36979 15.7835 8.63842 16.0521 8.96979 16.0521H10.8948C11.2262 16.0521 11.4948 16.3207 11.4948 16.6521V20.7333C11.4948 21.0647 11.2262 21.3333 10.8948 21.3333H3.26667C2.9353 21.3333 2.66667 21.0647 2.66667 20.7333V3.26667Z" fill="#4F3527"/>
</svg>
