<svg width="16" height="16" viewBox="0 0 16 16" fill="none" xmlns="http://www.w3.org/2000/svg">
<path d="M7.0891 0.552822C7.32858 -0.184227 8.37131 -0.184227 8.61079 0.552822L9.91547 4.56823C10.0226 4.89784 10.3297 5.12101 10.6763 5.12101H14.8984C15.6733 5.12101 15.9956 6.1127 15.3686 6.56822L11.9529 9.04988C11.6725 9.2536 11.5552 9.61469 11.6623 9.94431L12.967 13.9597C13.2064 14.6968 12.3629 15.3097 11.7359 14.8541L8.32017 12.3725C8.03978 12.1688 7.66011 12.1688 7.37972 12.3725L3.96401 14.8541C3.33704 15.3097 2.49346 14.6968 2.73294 13.9597L4.03762 9.94431C4.14472 9.61469 4.02739 9.2536 3.747 9.04988L0.331298 6.56822C-0.295673 6.1127 0.0265479 5.12101 0.801527 5.12101H5.02357C5.37015 5.12101 5.67732 4.89784 5.78442 4.56823L7.0891 0.552822Z" fill="#FFC71E"/>
</svg>
