<svg width="16" height="16" viewBox="0 0 16 16" fill="none" xmlns="http://www.w3.org/2000/svg">
<path d="M8 9.12004C7.46957 9.12004 6.96086 9.33075 6.58579 9.70582C6.21071 10.0809 6 10.5896 6 11.12V15.804H10V11.12C10 10.5896 9.78929 10.0809 9.41421 9.70582C9.03914 9.33075 8.53043 9.12004 8 9.12004Z" fill="#695346"/>
<path d="M8.892 0.342317C8.64716 0.121941 8.32941 0 8 0C7.67059 0 7.35284 0.121941 7.108 0.342317L0.662055 6.14379C0.240637 6.52307 0 7.0634 0 7.63036V13.673C0 14.2388 0.224761 14.7814 0.624839 15.1815C1.02492 15.5816 1.56754 15.8063 2.13333 15.8063H4.66667V11.1203C4.66667 10.2363 5.01786 9.38842 5.64298 8.7633C6.2681 8.13817 7.11594 7.78698 8 7.78698C8.88406 7.78698 9.7319 8.13817 10.357 8.7633C10.9821 9.38842 11.3333 10.2363 11.3333 11.1203V15.8043H13.8667C14.4325 15.8043 14.9751 15.5796 15.3752 15.1795C15.7752 14.7794 16 14.2368 16 13.671V7.62855C16 7.06148 15.7593 6.52106 15.3377 6.14177L8.892 0.342317Z" fill="#695346"/>
</svg>
