<svg width="15" height="18" viewBox="0 0 15 18" fill="none" xmlns="http://www.w3.org/2000/svg">
<path fill-rule="evenodd" clip-rule="evenodd" d="M7.3 0C3.40667 0 0 4 0 7C0 10.1414 0.952614 11.6517 2.13237 12.9283C2.50757 13.3343 2.88089 13.7681 3.26057 14.2093C3.77721 14.8096 4.30564 15.4236 4.86667 16C4.91173 16.0463 4.95783 16.0942 5.00502 16.1433C5.57938 16.7407 6.31536 17.5062 7.3 17.5C8.28464 17.5062 9.02062 16.7407 9.59497 16.1433C9.64217 16.0942 9.68827 16.0463 9.73333 16C10.2944 15.4236 10.8228 14.8096 11.3394 14.2093C11.7191 13.7681 12.0924 13.3343 12.4676 12.9283C13.6474 11.6517 14.6 10.1414 14.6 7C14.6 4 11.1933 0 7.3 0ZM7.2 9.4C8.41503 9.4 9.4 8.41503 9.4 7.2C9.4 5.98497 8.41503 5 7.2 5C5.98497 5 5 5.98497 5 7.2C5 8.41503 5.98497 9.4 7.2 9.4Z" fill="#695346"/>
</svg>
