<svg width="15" height="22" viewBox="0 0 15 22" fill="none" xmlns="http://www.w3.org/2000/svg">
<path d="M6.83145 12.8502C2.92498 13.2033 -0.0511941 16.5042 0.000667504 20.4262V20.6251C0.000667504 21.3844 0.616261 22 1.37562 22C2.13499 22 2.75058 21.3844 2.75058 20.6251V20.3712C2.70924 17.9631 4.48637 15.9095 6.87545 15.6047C9.39733 15.3546 11.6445 17.1963 11.8946 19.7182C11.9093 19.8673 11.9168 20.017 11.9169 20.1668V20.6251C11.9169 21.3844 12.5325 22 13.2919 22C14.0513 22 14.6669 21.3844 14.6669 20.6251V20.1667C14.6624 16.1122 11.3719 12.829 7.31741 12.8335C7.15529 12.8337 6.99322 12.8392 6.83145 12.8502Z" fill="#2B1B12"/>
<path d="M7.33383 10.9996C10.3713 10.9996 12.8336 8.53727 12.8336 5.49982C12.8336 2.46237 10.3713 0 7.33383 0C4.29638 0 1.834 2.46237 1.834 5.49982C1.83701 8.53603 4.29762 10.9966 7.33383 10.9996ZM7.33383 2.74991C8.85255 2.74991 10.0837 3.9811 10.0837 5.49982C10.0837 7.01855 8.85255 8.24973 7.33383 8.24973C5.8151 8.24973 4.58391 7.01855 4.58391 5.49982C4.58391 3.9811 5.8151 2.74991 7.33383 2.74991Z" fill="#2B1B12"/>
</svg>
